<?xml version="1.0" encoding="utf-8"?>
<!-- Generator: Adobe Illustrator 26.3.1, SVG Export Plug-In . SVG Version: 6.00 Build 0)  -->
<svg version="1.1" id="Layer_1" xmlns="http://www.w3.org/2000/svg" xmlns:xlink="http://www.w3.org/1999/xlink" x="0px" y="0px"
	 viewBox="0 0 409 178" style="enable-background:new 0 0 409 178;" xml:space="preserve">
<style type="text/css">
	.st0{fill:#FFFFFF;}
	.st1{fill:none;}
</style>
<g>
	<g>
		<g>
			<polygon class="st0" points="298.5,31.2 298.5,98.3 312.2,98.3 312.2,70.2 324.1,70.2 324.1,98.3 337.8,98.3 337.8,31.2 
				324.1,31.2 324.1,58 312.2,58 312.2,31.2 			"/>
			<polygon class="st0" points="192.5,31.2 192.5,98.3 205.1,98.3 205.1,55.7 212.5,98.3 220.9,98.3 228.4,55.7 228.4,98.3 
				241,98.3 241,31.2 222.3,31.2 216.8,63.5 211.2,31.2 			"/>
			<polygon class="st0" points="113.5,31.2 121.9,61.2 130.3,31.2 143.9,31.2 129.2,76.3 129.2,98.3 114.6,98.3 114.6,76.3 
				99.9,31.2 			"/>
			<path class="st0" d="M172.9,31.2h-18.2l-11.9,67.1h13.6l2.3-16H169l2.3,16H185L172.9,31.2z M163.8,46.4l3.4,23.8h-6.8L163.8,46.4
				z"/>
			<path class="st0" d="M278.8,31.2h-18.2l-11.9,67.1h13.6l2.3-16h10.3l2.3,16h13.7L278.8,31.2z M269.7,46.4l3.4,23.8h-6.8
				L269.7,46.4z"/>
			<path class="st0" d="M375.7,31.2h-18.2l-11.9,67.1h13.6l2.3-16h10.3l2.3,16h13.7L375.7,31.2z M366.5,46.4l3.4,23.8h-6.8
				L366.5,46.4z"/>
		</g>
	</g>
	<g>
		<path class="st0" d="M13.9,64.7C13.9,42.8,31.7,25,53.6,25s39.7,17.8,39.7,39.7s-17.8,39.7-39.7,39.7
			C31.7,104.4,13.9,86.6,13.9,64.7z"/>
		<path class="st1" d="M53.6,102.8c21,0,38.1-17.1,38.1-38.1S74.6,26.6,53.6,26.6S15.5,43.7,15.5,64.7S32.5,102.8,53.6,102.8z"/>
		<path d="M85.9,83.4c-0.2,0.3-0.5,0.4-0.8,0.4l-5.3-1.2C74.1,91,64.5,96.5,53.6,96.5S33.1,91,27.4,82.6L22,83.8
			c-0.3,0-0.6-0.1-0.8-0.4c-0.2-0.3-0.1-0.6,0.1-0.9l3.7-4c-2-4.2-3.1-8.9-3.1-13.8C21.9,48,34.8,34.2,51.3,33l1.6-5.2
			c0.1-0.3,0.4-0.5,0.7-0.5s0.6,0.2,0.7,0.5l1.6,5.2c16.5,1.2,29.4,15,29.4,31.7c0,4.9-1.1,9.6-3.1,13.8l3.7,4
			C86,82.7,86.1,83.1,85.9,83.4z M85.2,82.7l-8-8.5c-1.1,0.5-2.4,0.5-3.6-0.2c-1.1-0.6-1.8-1.8-2-3l0,0c-0.2-1.8-1.2-3.5-2.9-4.5
			l-3.2-1.9l14.4-8.3l-1.6-2.8l-16,9.2l-2.8-1.6v-3.2l16-9.2L74,46.1l-14.4,8.3v-3.7c0-2-0.9-3.7-2.4-4.8l0,0
			c-1-0.7-1.6-1.9-1.6-3.2s0.6-2.5,1.6-3.2l0,0l-3.4-11.2c0-0.1-0.1-0.2-0.2-0.2s-0.2,0.1-0.2,0.2L50,39.5c1,0.7,1.6,1.9,1.6,3.2
			S51,45.2,50,45.9l0,0c-1.4,1.1-2.4,2.8-2.4,4.8v3.7l-14.4-8.3l-1.6,2.8l16,9.2v3.2l-2.8,1.6l-16-9.2l-1.6,2.8l14.4,8.3l-3.2,1.9
			l0,0c-1.7,1-2.7,2.6-2.9,4.5l0,0c-0.1,1.2-0.8,2.3-2,3s-2.4,0.7-3.6,0.2l0,0l-8,8.5c-0.1,0.1-0.1,0.2-0.1,0.3
			c0.1,0.1,0.2,0.1,0.3,0.1l11.4-2.6c0.1-1.2,0.8-2.3,2-3c1.1-0.6,2.4-0.7,3.6-0.2l0,0c1.7,0.7,3.6,0.7,5.3-0.3l3.2-1.9v16.6h3.2
			V73.2l2.8-1.6l2.8,1.6v18.5h3.2V75l3.2,1.9c1.7,1,3.7,1,5.3,0.3l0,0c1.1-0.5,2.4-0.4,3.6,0.2s1.8,1.8,2,3l0,0L85,83
			c0.1,0,0.2,0,0.3-0.1C85.3,82.9,85.3,82.8,85.2,82.7z M56.4,66.3v-3.2l-2.8-1.6l-2.8,1.6v3.2l2.8,1.6L56.4,66.3z M50.8,56.2
			l2.8,1.6l2.8-1.6v-5.6c0-1.5-1.2-2.8-2.8-2.8s-2.8,1.2-2.8,2.8V56.2z M47.6,71.4v-3.2l-2.8-1.6L40,69.3c-1.3,0.8-1.8,2.5-1,3.8
			s2.5,1.8,3.8,1L47.6,71.4z M67.1,69.3l-4.8-2.8l-2.8,1.6v3.2l4.8,2.8c1.3,0.8,3,0.3,3.8-1C68.9,71.8,68.5,70.1,67.1,69.3z
			 M68.7,66.6L68.7,66.6L68.7,66.6L68.7,66.6z M62.8,76.9L62.8,76.9L62.8,76.9L62.8,76.9z M44.4,76.9L44.4,76.9L44.4,76.9L44.4,76.9
			z"/>
	</g>
</g>
<g>
	<g>
		<path class="st0" d="M360.3,115.7c0,0-3.1,0.2-6.4,0.5c0.3-0.8,0.7-1.5,1.1-2.4c0,0-4.8,1.1-5.5,2.8l0,0c-0.5,0-0.9,0.1-1.3,0.1
			c-2.4,0.3-4.3,2.7-4.3,2.7s2-0.2,4.4-0.5c-1.7,3.6-4.5,9.3-4.5,9.3l4.7-0.6c1.8-4,3.1-6.9,4.3-9.3c0.8-0.1,1.5-0.2,2.1-0.3
			C357.7,117.8,360.3,115.7,360.3,115.7"/>
		<path class="st0" d="M224,126.5c2.6,0,4.4,0.6,5.3,1.8c0.9,1.2,0.9,2.8-0.2,4.8c-1.2,2.4-2.4,4.4-5.4,5.9s-5.8,2.3-9.4,2.3
			c-2.6,0-4.4-0.6-5.2-1.8s-0.8-2.8,0.2-4.8c1.2-2.3,3.7-4.8,6.7-6.4C219,126.7,221.5,126.5,224,126.5 M219.6,129.5
			c-1.4,0.7-3.2,2.4-4.2,4.4c-2.1,4-0.4,5.5,1.2,5.3c2.3-0.2,4.1-1.7,5.6-3.9c1.2-1.9,2-3.5,2-4.8
			C224.1,129.2,223,127.8,219.6,129.5"/>
		<path class="st0" d="M171.5,122.7c0,0-3.6-0.1-5.3,2c-1.8,2-8.3,9.5-8.3,9.5l-1.5-10.1c0,0-3.3,0.4-5.4,1.2l1.9,13.5l4.8-0.5
			L171.5,122.7z"/>
		<path class="st0" d="M163.7,135.9c12.7,1.2,22.2-2.8,21-5.9c-0.6-1.5-2.2-2.3-6-3.5c-2.4-0.8,1.3-3.1,8.8-2.8l1.3-1.7
			c0,0-7.7,0-12.6,1.7c-3.8,1.3-6.1,3.8-3.2,4.9c2.9,1.1,5.1,1.5,5.8,2.6c1.2,2.1-5.8,3.5-13.3,2.9L163.7,135.9z"/>
		<path class="st0" d="M308.2,127.8c0,0-1.5,1-3.7,1.9c-1.5,0.6-4.6,1.6-5.8,1c-1.8-0.9-0.3-3-0.3-3s9.5-1.8,10-2
			c0.9-0.4,3.4-4.1,0.1-5.4c-2.9-1.2-11.4,1.1-14.2,7.4c-1.6,3.6,0.1,4.8,1.6,5.3c4.1,1.3,9.1-0.7,10.8-2.5L308.2,127.8z
			 M305.5,121.7c1.9-0.2,0.1,2.9-0.8,3.2c-2.2,0.8-5.4,1.1-5.4,1.1S302.1,122.2,305.5,121.7"/>
		<path class="st0" d="M147.3,134.2c0,0-1.9,1.1-4.8,2.1c-1.9,0.7-6.1,1.8-7.9,1.1c-2.7-1-1-3.4-1-3.4s12.5-1.6,13.5-2.2
			c1.1-0.7,3.9-4.8-0.9-6.3c-4.3-1.4-15.8,1.1-18.4,8.4c-1.5,4.1,1.1,5.6,3.3,6.1c6,1.5,12.5-0.7,14.6-2.8L147.3,134.2z
			 M142.5,127.1c2.6-0.2,0.7,3.4-0.5,3.6c-2.6,0.5-7.5,1-7.5,1S137.8,127.6,142.5,127.1"/>
		<path class="st0" d="M325.8,128.4c-2.4,0.7-3.6,0.7-2.5-1.9c0.8-1.8,4.3-7.9,4.3-7.9s-2.8,0.2-4.7,0.4c-6.2,0.7-9.4,3.7-10.9,6.1
			c-2.1,3.3-1.7,5.8,0.3,6.2c3,0.6,7.3-3.5,7.3-3.5s-0.6,2.8,2.5,2.6c1.8-0.1,3-0.9,3-0.9L325.8,128.4z M316,128.1
			c-1.5,0.3-1.1-1.9-0.1-3.4c1.7-2.6,4.2-3.4,7-3.5C323,121.1,320.5,127.2,316,128.1"/>
		<path class="st0" d="M257.4,123.8c4.2-0.4,4.1,0.9,4.1,0.9c4.8-2.8,9.2-1.8,9.2-1.8s-1.2,1.1-2.9,1.9c-2.9,1.4-4.7-1-7.4,2.7
			c-1.3,1.7-4.8,8.8-4.8,8.8l-5.5,0.8C252.8,132.5,257.4,123.8,257.4,123.8"/>
		<path class="st0" d="M332.3,118.3c4.1-0.5,3.5,1.1,3.5,1.1c4.6-3,8.9-2.1,8.9-2.1s-1.1,1.1-2.8,2c-2.8,1.5-4.6-0.8-7.2,3
			c-1.2,1.7-3.4,7.2-3.4,7.2l-4.7,0.6C329.4,124.2,332.3,118.3,332.3,118.3"/>
		<path class="st0" d="M236.1,138.9c-5.8,0-5.1-3-4.5-4.7c0.5-1.4,2-3.9,3.1-5.8c0,0,1-1.4,2.1-2.1c1.2-0.7,4.5-1.2,4.5-1.2
			s-2.9,5.1-4.1,8c-1,2.3-1.4,3.8,1.8,3.4c2.2-0.3,3.2-1.3,4.9-4c1.2-2,2.6-4.7,3.3-6.1c0.6-1.2,2.5-1.9,6-2.1c0,0-3.2,5.7-4.7,8.5
			C246.3,137,241.2,138.8,236.1,138.9"/>
		<path class="st0" d="M197.2,146.9c6.1-10.1,11.3-18.9,18.5-27.1c0,0-6.1,0.2-6.9,1.5l-7.4,10.6c0,0-2.5-7.7-3.2-10.5
			c0,0-3,0.1-4.6,0.8c0,0,3.2,10,4.5,13.7c0.2,0.5-0.2,1-0.4,1.4c-0.3,0.5-0.6,0.9-0.9,1.4c-6.8,0.7-57.1,6.1-63.8,6.4
			c-3,0.1-9.7-0.2-16.3-3.4c-4.7-2.3-6.7-4.2-10-6.1c0,0,4-0.5,10.6-3.1c10.9-4.1,18.2-12.5,3.3-14.9c-11.5-1.8-46.9,4.9-46.9,4.9
			s2.6,2.1,6.1,1.4c4.4-0.9,9.7-1.9,15-2.6c-3.1,4.8-14.4,21.9-21.2,31.8c0,0,10.1-0.4,11.6-2.8c0.7-1.1,4.4-7.6,8.2-14.5
			c4.9,2.7,16.6,10.2,19,11.3c2.7,1.2,5.8,1.5,9.7,1.2c19.2-1.2,58.6-6.6,73.5-7.9c-4.1,6-7.1,10.5-7.1,10.5
			c18.7-2.6,171.2-19,171.2-19l6.8-2.1C366.6,129.7,234.5,144,197.2,146.9 M102.3,120.3c5.9-0.6,11.2-0.7,14.3,0.3
			c8,2.4-1.1,8-7.1,10.5c-6.2,2.6-14.4,4.3-15.9,4.6C97,129.5,100.6,123.2,102.3,120.3"/>
		<path class="st0" d="M292.5,116c-1.1,1.8-2.4,4.5-3.7,7.4l-8.8,1c1.5-3.5,2.8-6.5,3.8-8.6c0,0-2,0.1-3.7,0.5
			c-1.8,0.4-2.8,0.8-2.8,0.8s1.1,0.4,1.4,1.1c-3.1,5.8-8.8,18-8.8,18l5.2-0.5c1.4-3,2.7-6.1,3.9-8.8c2.2-0.5,6.3-1,8.9-1.4
			c-2.2,4.8-4,9.3-4,9.3l4.6-0.5c4.2-10.5,8.1-17.8,9.2-19.7C297.6,114.5,293.5,114.2,292.5,116"/>
	</g>
</g>
</svg>
